<?xml version="1.0"?><svg width="2481" height="2073" xmlns="http://www.w3.org/2000/svg">
 <title>google map pointer grey</title>
 <g>
  <title>Layer 1</title>
  <path d="m258.047852,772.796143c-16.002029,-78.561646 -44.219193,-143.945557 -78.395355,-204.534119c-25.349823,-44.933044 -54.715843,-86.426605 -81.890091,-130.003479c-9.069206,-14.558624 -16.897011,-29.930664 -25.613625,-45.024231c-17.427082,-30.193237 -31.556587,-65.200226 -30.660435,-110.607697c0.87772,-44.368408 13.710423,-79.958496 32.213665,-109.058228c30.432358,-47.859436 81.408127,-87.099686 149.806046,-97.411392c55.92392,-8.431931 108.35553,5.812271 145.53714,27.553925c30.381805,17.767303 53.91333,41.499802 71.797699,69.469147c18.667267,29.193481 31.522095,63.682724 32.599518,108.668655c0.552246,23.047058 -3.2211,44.390533 -8.537842,62.095001c-5.377197,17.922577 -14.030975,32.901489 -21.73056,48.902252c-15.03064,31.236176 -33.871704,59.847778 -52.782928,88.484009c-56.324554,85.29245 -109.190125,172.273712 -132.343231,291.466156z" stroke-miterlimit="10" fill-rule="evenodd" fill="#787878" clip-rule="evenodd" id="svg_2"/>
  <circle r="75.6839" cy="282.121" cx="257.471" fill-rule="evenodd" fill="#cfcfcf" clip-rule="evenodd" id="svg_4"/>
 </g>
</svg>